<?xml version="1.0" encoding="UTF-8"?>
<svg width="32px" height="32px" viewBox="0 0 32 32" version="1.1" xmlns="http://www.w3.org/2000/svg">
    <g stroke="none" stroke-width="1" fill="none" fill-rule="evenodd">
        <circle fill="#8247E5" cx="16" cy="16" r="16"/>
        <g transform="translate(6, 6)" fill="#FFFFFF">
            <path d="M16.2,10.35L13.75,11.8C13.6,11.9 13.45,11.9 13.3,11.8L11.45,10.75C11.3,10.65 11.15,10.65 11,10.75L9.15,11.8C9,11.9 8.85,11.9 8.7,11.8L6,10.2V11.8C6,12 6.1,12.15 6.25,12.25L8.7,13.7C8.85,13.8 9.05,13.8 9.2,13.7L11.05,12.65C11.2,12.55 11.35,12.55 11.5,12.65L13.35,13.7C13.5,13.8 13.7,13.8 13.85,13.7L16.3,12.25C16.45,12.15 16.55,12 16.55,11.8V10.2L16.2,10.35Z"/>
            <path d="M16.2,7.35L13.75,8.8C13.6,8.9 13.45,8.9 13.3,8.8L11.45,7.75C11.3,7.65 11.15,7.65 11,7.75L9.15,8.8C9,8.9 8.85,8.9 8.7,8.8L6.25,7.35C6.1,7.25 6,7.1 6,6.9V5.3L5.65,5.45L3.2,6.9C3.05,7 2.9,7 2.75,6.9L0.3,5.45C0.15,5.35 0.05,5.2 0.05,5V3.4C0.05,3.2 0.15,3.05 0.3,2.95L2.75,1.5C2.9,1.4 3.1,1.4 3.25,1.5L5.1,2.55C5.25,2.65 5.4,2.65 5.55,2.55L7.4,1.5C7.55,1.4 7.75,1.4 7.9,1.5L10.35,2.95C10.5,3.05 10.6,3.2 10.6,3.4V5L10.95,4.85L13.4,3.4C13.55,3.3 13.75,3.3 13.9,3.4L16.35,4.85C16.5,4.95 16.6,5.1 16.6,5.3V6.9C16.55,7.1 16.4,7.25 16.2,7.35Z"/>
        </g>
    </g>
</svg>
